<svg width="12" height="13" viewBox="0 0 12 13" fill="none" xmlns="http://www.w3.org/2000/svg">
<g clip-path="url(#clip0_30_115)">
<path d="M8.55626 1.01024L8.63286 2.0073C8.10518 2.04784 7.44954 2.33198 6.73457 3.09806L6.00349 3.8814L5.27242 3.09805C4.55727 2.33175 3.90028 2.04618 3.37071 2.00461C2.78004 1.95824 2.2251 2.20764 1.78575 2.68026L1.78574 2.68027C0.874272 3.66073 0.645521 5.38627 1.69795 6.53733L6.00349 10.7623L10.3092 6.53718C11.3519 5.39636 11.1254 3.67072 10.2141 2.68643L8.55626 1.01024ZM8.55626 1.01024L8.63286 2.0073C9.22143 1.96208 9.77505 2.21227 10.2141 2.68639L8.55626 1.01024Z" fill="white" stroke="white" stroke-width="2"/>
</g>
<defs>
<clipPath id="clip0_30_115">
<rect width="12" height="13" fill="white"/>
</clipPath>
</defs>
</svg>
