<svg width="30" height="29" viewBox="0 0 30 29" fill="none" xmlns="http://www.w3.org/2000/svg">
<path d="M15 22.6563C16.9891 22.6563 18.8968 21.8924 20.3033 20.5328C21.7098 19.1731 22.5 17.3291 22.5 15.4063V13.5938M15 22.6563C13.0109 22.6563 11.1032 21.8924 9.6967 20.5328C8.29018 19.1731 7.5 17.3291 7.5 15.4063V13.5938M15 22.6563V27.1875M10.3125 27.1875H19.6875M15 19.0313C14.0054 19.0313 13.0516 18.6493 12.3483 17.9695C11.6451 17.2897 11.25 16.3677 11.25 15.4063V5.4375C11.25 4.47609 11.6451 3.55406 12.3483 2.87424C13.0516 2.19442 14.0054 1.8125 15 1.8125C15.9946 1.8125 16.9484 2.19442 17.6517 2.87424C18.3549 3.55406 18.75 4.47609 18.75 5.4375V15.4063C18.75 16.3677 18.3549 17.2897 17.6517 17.9695C16.9484 18.6493 15.9946 19.0313 15 19.0313Z" stroke="white" stroke-width="1.5" stroke-linecap="round" stroke-linejoin="round"/>
</svg>
