<svg width="51" height="35" viewBox="0 0 51 35" fill="none" xmlns="http://www.w3.org/2000/svg">
<path fill-rule="evenodd" clip-rule="evenodd" d="M47.359 2.5H37.6599C36.6541 2.5 35.8385 3.05965 35.8385 3.75V33.75C35.8385 34.4403 36.6541 35 37.6599 35H47.359C48.3648 35 49.1804 34.4403 49.1804 33.75V3.75C49.1804 3.05965 48.3648 2.5 47.359 2.5ZM11.5204 20H1.82143C0.815483 20 0 20.5596 0 21.25V33.75C0 34.4403 0.815479 35 1.82143 35H11.5204C12.5264 35 13.3419 34.4403 13.3419 33.75V21.25C13.3419 20.5596 12.5264 20 11.5204 20ZM19.7416 12.5H29.4406C30.4465 12.5 31.262 13.0596 31.262 13.75V33.75C31.262 34.4403 30.4465 35 29.4406 35H19.7416C18.7356 35 17.9201 34.4403 17.9201 33.75V13.75C17.9201 13.0596 18.7356 12.5 19.7416 12.5Z" fill="#00FF40"/>
</svg>
